# xmcd CD database file
#
# Track frame offsets:
#	150
#	18225
#	41582
#	71227
#	91735
#	113867
#	134307
#	168315
#	195840
#	214150
#
# Disc length: 3647 seconds
#
# Revision: 0
# Processed by: cddbd v1.5.2PL0 Copyright (c) Steve Scherf et al.
# Submitted via: CDex 1.51
#
DISCID=810e3d0a
DTITLE=Alan Barnes - Old Hands - Young Minds
DYEAR=1996
DGENRE=Jazz
TTITLE0=Limehouse Blues
TTITLE1=Polka Dots And Moonbeams
TTITLE2=Mood Indigo
TTITLE3=Just One Of Those Things
TTITLE4=Chelsea Bridge
TTITLE5=Secret Love
TTITLE6=I've Got A RightTo Sing The Blues
TTITLE7=Willow Weep For Me
TTITLE8=Some Day My Prince Will Come
TTITLE9=After Supper
EXTD=YEAR: 1996
EXTT0=
EXTT1=
EXTT2=
EXTT3=
EXTT4=
EXTT5=
EXTT6=
EXTT7=
EXTT8=
EXTT9=
PLAYORDER=
